<svg id="svg" version="1.1" xmlns="http://www.w3.org/2000/svg" xmlns:xlink="http://www.w3.org/1999/xlink" width="400" height="400" viewBox="0, 0, 400,400"><g id="svgg"><path id="path0" d="M150.909 169.700 C 151.122 193.026,151.149 193.252,154.592 200.253 C 160.616 212.503,174.819 218.933,189.292 215.963 C 191.505 215.509,191.591 215.443,191.803 214.046 C 193.052 205.819,195.385 200.649,199.832 196.255 C 201.607 194.502,206.016 191.200,206.582 191.200 C 206.707 191.200,207.572 190.844,208.504 190.409 C 209.437 189.973,210.920 189.370,211.800 189.068 L 213.400 188.520 213.504 168.860 L 213.608 149.200 201.604 149.200 L 189.600 149.200 189.590 166.900 C 189.579 187.783,189.424 188.855,186.058 191.400 C 184.450 192.616,179.876 192.539,178.091 191.266 C 174.980 189.048,175.014 189.295,174.882 168.100 L 174.763 149.200 162.743 149.200 L 150.722 149.200 150.909 169.700 M104.800 198.400 L 104.800 243.600 138.000 243.600 L 171.200 243.600 171.200 231.563 L 171.200 219.525 170.300 219.297 C 168.598 218.865,162.600 215.527,159.819 213.465 L 157.035 211.400 147.617 211.200 L 138.200 211.000 138.097 182.100 L 137.995 153.200 121.397 153.200 L 104.800 153.200 104.800 198.400 M216.000 192.571 C 205.906 194.814,199.606 200.505,196.925 209.800 C 196.329 211.867,196.214 214.544,196.096 229.100 L 195.960 246.000 207.161 246.000 L 218.362 246.000 218.481 231.882 C 218.622 215.124,218.910 214.131,223.388 214.971 C 226.338 215.525,226.397 215.856,226.399 231.900 L 226.400 246.000 237.400 246.000 L 248.400 246.000 248.410 232.900 C 248.422 216.479,248.807 214.800,252.568 214.800 C 256.428 214.800,256.795 216.354,256.798 232.700 L 256.800 246.000 268.000 246.000 L 279.200 246.000 279.200 230.383 C 279.200 210.657,278.631 207.487,273.983 201.331 C 266.595 191.545,248.802 188.906,239.733 196.250 C 237.696 197.899,237.457 197.908,235.738 196.399 C 231.451 192.635,223.045 191.005,216.000 192.571 M302.200 210.249 C 280.141 214.851,273.746 244.084,291.800 257.790 C 298.820 263.119,299.802 263.326,318.900 263.507 L 334.800 263.657 334.800 252.629 L 334.800 241.600 320.980 241.600 C 309.561 241.600,306.961 241.497,306.015 241.008 C 301.163 238.499,302.858 231.200,308.294 231.200 C 312.783 231.200,315.648 235.874,312.972 238.831 C 312.287 239.587,312.422 239.600,321.263 239.600 L 330.250 239.600 331.279 238.500 C 335.472 234.018,335.365 224.529,331.054 218.529 C 325.944 211.415,313.596 207.872,302.200 210.249 " stroke="none" fill="#161515" fill-rule="evenodd"></path><path id="path1" d="M0.000 200.000 L 0.000 400.000 200.000 400.000 L 400.000 400.000 400.000 200.000 L 400.000 0.000 200.000 0.000 L 0.000 0.000 0.000 200.000 M175.357 149.033 C 175.491 149.381,175.600 157.846,175.600 167.846 C 175.600 187.585,175.613 187.717,177.855 190.058 C 181.101 193.446,187.059 191.651,188.382 186.888 C 188.639 185.965,188.796 178.467,188.798 167.143 C 188.800 150.865,188.869 148.859,189.433 148.643 C 190.396 148.273,213.326 148.365,213.918 148.741 C 214.333 149.004,214.413 152.963,214.318 168.674 C 214.195 189.108,214.153 189.600,212.518 189.600 C 211.384 189.600,206.169 192.119,203.738 193.841 C 197.532 198.239,193.655 205.077,192.589 213.506 C 192.261 216.102,192.039 216.236,186.741 217.028 C 170.124 219.513,154.757 209.122,151.210 193.000 C 150.408 189.358,149.919 149.414,150.667 148.667 C 151.313 148.021,175.104 148.373,175.357 149.033 M138.557 153.033 C 138.691 153.381,138.800 166.521,138.800 182.233 L 138.800 210.800 148.130 210.800 L 157.459 210.800 160.402 213.001 C 163.014 214.956,167.761 217.560,170.900 218.762 L 172.000 219.183 172.000 231.549 C 172.000 242.456,171.925 243.943,171.367 244.157 C 170.544 244.473,106.080 244.464,104.900 244.148 L 104.000 243.907 104.000 198.387 C 104.000 162.345,104.104 152.825,104.500 152.665 C 105.991 152.063,138.319 152.412,138.557 153.033 M229.697 192.384 C 231.180 192.849,233.581 194.043,235.033 195.037 C 237.661 196.837,237.677 196.841,238.690 196.122 C 243.293 192.854,246.295 191.705,251.200 191.336 C 265.304 190.273,276.836 198.866,279.419 212.362 C 280.313 217.035,280.269 246.211,279.367 246.557 C 278.542 246.874,257.458 246.874,256.633 246.557 C 256.072 246.342,256.000 244.714,256.000 232.337 C 256.000 215.919,255.927 215.571,252.467 215.613 C 249.425 215.649,249.200 216.837,249.200 232.855 C 249.200 244.759,249.127 246.342,248.567 246.557 C 247.646 246.911,227.087 246.843,226.524 246.485 C 226.174 246.263,226.015 242.397,225.924 231.923 L 225.800 217.663 224.830 216.632 C 223.273 214.975,220.799 215.267,219.785 217.229 C 219.304 218.158,219.200 220.853,219.200 232.337 C 219.200 244.714,219.128 246.342,218.567 246.557 C 217.742 246.874,196.658 246.874,195.833 246.557 C 193.874 245.806,195.188 211.768,197.384 206.362 C 202.084 194.795,216.923 188.376,229.697 192.384 M315.600 209.359 C 326.430 211.129,332.939 216.683,334.709 225.665 C 335.680 230.594,334.585 235.741,331.874 239.000 L 330.876 240.200 321.271 240.200 C 312.836 240.200,309.790 239.922,311.508 239.309 C 313.408 238.632,313.689 234.778,311.958 233.160 C 308.946 230.347,304.000 232.233,304.000 236.196 C 304.000 240.747,304.196 240.800,321.133 240.800 L 335.107 240.800 335.348 241.700 C 335.914 243.814,335.621 263.484,335.016 263.987 C 333.689 265.088,303.912 264.320,300.200 263.089 C 288.239 259.123,280.720 248.821,280.720 236.400 C 280.720 218.004,296.003 206.156,315.600 209.359 " stroke="none" fill="#fbfbfb" fill-rule="evenodd"></path><path id="path2" d="M156.925 148.699 C 160.404 148.766,165.984 148.766,169.325 148.699 C 172.666 148.632,169.820 148.578,163.000 148.578 C 156.180 148.578,153.446 148.633,156.925 148.699 M201.600 148.791 L 213.800 149.000 213.800 168.732 C 213.800 187.804,213.774 188.484,213.024 189.032 C 212.596 189.345,212.439 189.600,212.675 189.600 C 214.131 189.600,214.197 188.757,214.318 168.674 C 214.413 152.963,214.333 149.004,213.918 148.741 C 213.633 148.560,208.000 148.451,201.400 148.497 L 189.400 148.582 201.600 148.791 M175.385 167.600 C 175.385 177.830,175.436 182.015,175.500 176.900 C 175.563 171.785,175.563 163.415,175.500 158.300 C 175.436 153.185,175.385 157.370,175.385 167.600 M104.500 152.665 C 103.937 152.892,103.737 244.000,104.300 244.000 C 104.465 244.000,104.600 223.525,104.600 198.500 L 104.600 153.000 121.600 152.793 L 138.600 152.587 121.800 152.525 C 112.560 152.491,104.775 152.554,104.500 152.665 M138.596 182.200 L 138.600 211.000 148.000 211.011 L 157.400 211.022 148.103 210.904 L 138.805 210.786 138.699 182.093 L 138.592 153.400 138.596 182.200 M176.012 187.906 C 176.005 188.184,176.585 189.002,177.300 189.724 C 178.015 190.446,178.219 190.579,177.754 190.019 C 177.288 189.458,176.708 188.640,176.466 188.200 C 176.223 187.760,176.019 187.628,176.012 187.906 M150.495 188.800 C 150.495 189.350,150.632 190.340,150.800 191.000 C 151.072 192.070,151.105 192.092,151.105 191.200 C 151.105 190.650,150.968 189.660,150.800 189.000 C 150.528 187.930,150.495 187.908,150.495 188.800 M187.050 189.481 C 186.637 190.033,185.557 190.821,184.650 191.233 C 183.742 191.645,183.234 191.986,183.520 191.991 C 184.724 192.012,188.508 189.162,187.968 188.641 C 187.876 188.551,187.462 188.930,187.050 189.481 M208.000 191.000 C 207.450 191.314,207.180 191.572,207.400 191.572 C 207.620 191.572,208.250 191.314,208.800 191.000 C 209.350 190.686,209.620 190.428,209.400 190.428 C 209.180 190.428,208.550 190.686,208.000 191.000 M218.000 191.595 C 217.230 191.754,218.490 191.795,220.800 191.686 C 223.110 191.578,225.075 191.424,225.167 191.345 C 225.464 191.087,219.442 191.297,218.000 191.595 M248.800 191.598 C 248.030 191.759,249.200 191.800,251.400 191.689 C 253.600 191.579,255.475 191.424,255.567 191.344 C 255.865 191.086,250.240 191.297,248.800 191.598 M256.500 191.876 C 256.885 191.976,257.515 191.976,257.900 191.876 C 258.285 191.775,257.970 191.693,257.200 191.693 C 256.430 191.693,256.115 191.775,256.500 191.876 M213.800 192.400 C 213.296 192.617,213.222 192.744,213.600 192.744 C 213.930 192.744,214.560 192.589,215.000 192.400 C 215.504 192.183,215.578 192.056,215.200 192.056 C 214.870 192.056,214.240 192.211,213.800 192.400 M228.600 192.400 C 229.040 192.589,229.670 192.744,230.000 192.744 C 230.378 192.744,230.304 192.617,229.800 192.400 C 229.360 192.211,228.730 192.056,228.400 192.056 C 228.022 192.056,228.096 192.183,228.600 192.400 M245.400 192.400 C 244.896 192.617,244.822 192.744,245.200 192.744 C 245.530 192.744,246.160 192.589,246.600 192.400 C 247.104 192.183,247.178 192.056,246.800 192.056 C 246.470 192.056,245.840 192.211,245.400 192.400 M259.800 192.400 C 260.240 192.589,260.960 192.738,261.400 192.732 C 262.043 192.723,262.004 192.657,261.200 192.400 C 259.832 191.962,258.781 191.962,259.800 192.400 M242.700 193.429 C 241.149 194.270,241.325 194.561,242.900 193.759 C 244.408 192.993,244.675 192.794,244.167 192.816 C 243.965 192.825,243.305 193.101,242.700 193.429 M151.444 194.200 C 151.773 195.671,152.002 195.990,151.994 194.967 C 151.991 194.545,151.805 193.930,151.582 193.600 C 151.285 193.162,151.248 193.324,151.444 194.200 M201.046 195.627 C 198.962 197.532,196.000 201.154,196.000 201.798 C 196.000 201.957,196.780 201.028,197.734 199.733 C 198.687 198.438,200.439 196.528,201.627 195.489 C 202.814 194.450,203.669 193.600,203.525 193.600 C 203.382 193.600,202.266 194.512,201.046 195.627 M233.000 193.872 C 233.220 194.086,234.349 194.941,235.509 195.771 C 237.824 197.429,237.792 197.433,240.400 195.169 L 241.400 194.302 240.400 194.954 C 239.850 195.312,238.999 195.892,238.509 196.243 C 237.664 196.847,237.516 196.808,235.709 195.504 C 233.635 194.008,232.335 193.225,233.000 193.872 M207.100 195.029 C 205.605 195.840,205.696 196.178,207.200 195.400 C 207.860 195.059,208.400 194.694,208.400 194.590 C 208.400 194.332,208.357 194.347,207.100 195.029 M203.513 197.623 C 202.475 198.512,201.245 199.816,200.780 200.520 C 200.057 201.614,200.134 201.574,201.312 200.246 C 202.071 199.391,203.391 198.092,204.246 197.361 C 205.101 196.629,205.710 196.024,205.600 196.018 C 205.490 196.011,204.551 196.733,203.513 197.623 M272.617 199.167 C 273.726 200.395,275.046 202.075,275.550 202.900 C 276.663 204.723,277.134 204.909,276.123 203.126 C 275.725 202.425,274.320 200.745,273.000 199.393 C 270.776 197.114,270.748 197.098,272.617 199.167 M155.228 203.100 C 155.719 203.925,156.474 204.960,156.906 205.400 C 157.338 205.840,157.015 205.165,156.189 203.900 C 154.511 201.331,153.844 200.776,155.228 203.100 M198.181 204.437 C 197.829 205.118,197.612 205.745,197.699 205.832 C 197.786 205.919,198.156 205.362,198.522 204.595 C 199.344 202.870,199.059 202.738,198.181 204.437 M158.000 206.655 C 158.000 206.868,158.675 207.663,159.500 208.422 L 161.000 209.800 159.600 208.204 C 158.830 207.327,158.155 206.532,158.100 206.438 C 158.045 206.344,158.000 206.441,158.000 206.655 M193.000 209.200 C 192.848 209.891,192.807 210.541,192.909 210.642 C 193.011 210.744,193.209 210.253,193.350 209.550 C 193.683 207.883,193.360 207.560,193.000 209.200 M196.446 208.867 C 196.421 209.234,196.296 209.864,196.170 210.267 C 195.952 210.962,195.963 210.963,196.397 210.287 C 196.648 209.896,196.773 209.266,196.673 208.887 C 196.511 208.268,196.488 208.266,196.446 208.867 M278.456 209.200 C 278.456 209.530,278.611 210.160,278.800 210.600 C 279.017 211.104,279.144 211.178,279.144 210.800 C 279.144 210.470,278.989 209.840,278.800 209.400 C 278.583 208.896,278.456 208.822,278.456 209.200 M304.231 209.147 C 303.588 209.286,306.018 209.400,309.631 209.400 C 313.419 209.400,315.438 209.286,314.400 209.130 C 312.173 208.795,305.809 208.806,304.231 209.147 M300.200 210.000 C 299.696 210.217,299.622 210.344,300.000 210.344 C 300.330 210.344,300.960 210.189,301.400 210.000 C 301.904 209.783,301.978 209.656,301.600 209.656 C 301.270 209.656,300.640 209.811,300.200 210.000 M317.600 210.000 C 318.968 210.438,320.019 210.438,319.000 210.000 C 318.560 209.811,317.840 209.662,317.400 209.668 C 316.757 209.677,316.796 209.743,317.600 210.000 M158.000 211.363 C 158.000 211.668,162.503 215.032,163.600 215.547 C 164.438 215.940,164.480 215.934,163.858 215.508 C 163.450 215.229,161.965 214.139,160.558 213.087 C 159.151 212.034,158.000 211.259,158.000 211.363 M192.132 213.815 C 191.912 215.032,191.867 215.887,192.033 215.715 C 192.370 215.362,192.992 211.600,192.712 211.600 C 192.614 211.600,192.353 212.597,192.132 213.815 M195.456 213.845 C 195.315 214.872,195.238 222.662,195.284 231.156 L 195.368 246.600 195.584 229.400 C 195.703 219.940,195.780 212.150,195.756 212.089 C 195.732 212.028,195.597 212.818,195.456 213.845 M324.400 212.145 C 324.400 212.249,325.075 212.749,325.900 213.255 C 326.725 213.761,328.226 214.900,329.236 215.787 C 330.768 217.133,330.729 217.069,329.001 215.400 C 327.134 213.597,324.400 211.662,324.400 212.145 M279.506 226.814 C 279.564 234.836,279.664 242.570,279.728 244.000 C 279.791 245.430,279.857 239.400,279.874 230.600 C 279.891 221.800,279.792 214.066,279.653 213.414 C 279.514 212.762,279.448 218.792,279.506 226.814 M166.600 213.600 C 167.260 214.037,167.980 214.395,168.200 214.396 C 168.420 214.396,168.011 214.038,167.290 213.599 C 165.592 212.563,165.036 212.564,166.600 213.600 M221.052 215.516 C 220.944 215.690,221.485 215.759,222.253 215.670 C 223.305 215.547,223.914 215.740,224.725 216.453 L 225.800 217.400 224.830 216.300 C 223.881 215.223,221.534 214.736,221.052 215.516 M250.500 215.870 C 250.005 216.215,249.600 216.663,249.600 216.864 C 249.600 217.066,250.005 216.851,250.500 216.386 C 251.158 215.769,251.794 215.578,252.866 215.678 C 253.673 215.753,254.247 215.676,254.143 215.507 C 253.815 214.977,251.441 215.213,250.500 215.870 M288.943 216.382 C 286.703 218.482,283.495 222.800,284.176 222.800 C 284.288 222.800,284.657 222.264,284.996 221.608 C 285.335 220.953,286.710 219.243,288.052 217.808 C 290.642 215.040,291.019 214.436,288.943 216.382 M174.000 216.400 C 175.368 216.838,176.419 216.838,175.400 216.400 C 174.960 216.211,174.240 216.062,173.800 216.068 C 173.157 216.077,173.196 216.143,174.000 216.400 M177.900 217.082 C 178.395 217.178,179.205 217.178,179.700 217.082 C 180.195 216.987,179.790 216.909,178.800 216.909 C 177.810 216.909,177.405 216.987,177.900 217.082 M182.400 217.200 C 180.775 217.453,180.736 217.482,182.000 217.505 C 182.770 217.519,184.300 217.390,185.400 217.218 C 187.292 216.924,187.313 216.907,185.800 216.914 C 184.920 216.917,183.390 217.046,182.400 217.200 M225.905 229.671 C 225.963 236.342,226.064 242.880,226.128 244.200 C 226.193 245.520,226.263 240.480,226.283 233.000 C 226.304 225.520,226.203 218.982,226.060 218.471 C 225.917 217.960,225.847 223.000,225.905 229.671 M249.056 218.484 C 248.921 218.988,248.848 225.520,248.893 233.000 L 248.976 246.600 249.188 232.200 C 249.304 224.280,249.378 217.748,249.351 217.684 C 249.324 217.620,249.191 217.980,249.056 218.484 M334.592 229.000 C 334.599 232.840,334.645 233.137,334.951 231.334 C 335.154 230.137,335.150 228.287,334.942 226.934 C 334.612 224.786,334.584 224.951,334.592 229.000 M307.500 231.882 C 307.995 231.978,308.805 231.978,309.300 231.882 C 309.795 231.787,309.390 231.709,308.400 231.709 C 307.410 231.709,307.005 231.787,307.500 231.882 M304.801 232.998 C 304.286 233.548,303.939 234.048,304.032 234.111 C 304.124 234.174,304.684 233.724,305.274 233.112 C 305.865 232.501,306.212 232.000,306.044 232.000 C 305.877 232.000,305.317 232.449,304.801 232.998 M313.121 235.375 C 313.279 236.728,312.289 239.200,311.590 239.200 C 311.375 239.200,311.200 239.380,311.200 239.600 C 311.200 240.454,311.891 239.931,312.726 238.446 C 313.591 236.906,313.894 234.629,313.284 234.252 C 313.110 234.144,313.036 234.650,313.121 235.375 M303.709 236.400 C 303.709 237.390,303.787 237.795,303.882 237.300 C 303.978 236.805,303.978 235.995,303.882 235.500 C 303.787 235.005,303.709 235.410,303.709 236.400 M316.700 240.299 C 319.175 240.369,323.225 240.369,325.700 240.299 C 328.175 240.228,326.150 240.171,321.200 240.171 C 316.250 240.171,314.225 240.228,316.700 240.299 M312.000 241.085 C 324.669 241.367,335.201 241.373,335.200 241.100 C 335.200 240.935,328.855 240.839,321.100 240.887 C 313.345 240.935,309.250 241.024,312.000 241.085 M335.375 252.800 C 335.375 258.850,335.431 261.325,335.499 258.300 C 335.567 255.275,335.567 250.325,335.499 247.300 C 335.431 244.275,335.375 246.750,335.375 252.800 M121.730 244.300 C 130.931 244.360,145.871 244.360,154.930 244.300 C 163.988 244.240,156.460 244.191,138.200 244.191 C 119.940 244.191,112.528 244.240,121.730 244.300 M201.500 246.699 C 204.635 246.767,209.765 246.767,212.900 246.699 C 216.035 246.632,213.470 246.576,207.200 246.576 C 200.930 246.576,198.365 246.632,201.500 246.699 M232.100 246.699 C 235.125 246.767,240.075 246.767,243.100 246.699 C 246.125 246.631,243.650 246.575,237.600 246.575 C 231.550 246.575,229.075 246.631,232.100 246.699 M262.300 246.699 C 265.435 246.767,270.565 246.767,273.700 246.699 C 276.835 246.632,274.270 246.576,268.000 246.576 C 261.730 246.576,259.165 246.632,262.300 246.699 M288.600 256.000 C 289.459 256.880,290.237 257.600,290.328 257.600 C 290.665 257.600,287.786 254.466,287.419 254.434 C 287.209 254.415,287.741 255.120,288.600 256.000 M302.000 263.600 C 302.550 263.776,303.360 263.920,303.800 263.920 C 304.433 263.920,304.392 263.854,303.600 263.600 C 303.050 263.424,302.240 263.280,301.800 263.280 C 301.167 263.280,301.208 263.346,302.000 263.600 M313.526 264.300 C 317.555 264.365,324.035 264.365,327.926 264.299 C 331.817 264.234,328.520 264.180,320.600 264.181 C 312.680 264.181,309.497 264.234,313.526 264.300 " stroke="none" fill="#9c9595" fill-rule="evenodd"></path><path id="path3" d="M150.667 149.067 C 150.326 149.407,150.393 184.669,150.740 187.600 C 150.883 188.810,150.939 180.665,150.865 169.500 L 150.731 149.200 162.761 149.200 L 174.792 149.200 174.900 167.500 L 175.008 185.800 175.104 167.300 L 175.200 148.800 163.067 148.800 C 156.393 148.800,150.813 148.920,150.667 149.067 M189.200 166.138 C 189.200 175.681,189.116 184.368,189.014 185.444 C 188.868 186.974,188.901 187.139,189.166 186.200 C 189.353 185.540,189.527 176.945,189.553 167.100 L 189.600 149.200 201.596 149.200 L 213.592 149.200 213.702 167.100 L 213.812 185.000 213.806 167.000 L 213.800 149.000 201.500 148.894 L 189.200 148.788 189.200 166.138 M104.586 153.296 C 104.480 153.573,104.440 174.050,104.497 198.800 L 104.600 243.800 138.100 243.902 L 171.600 244.005 171.600 231.633 L 171.600 219.262 170.100 218.781 C 169.275 218.516,167.632 217.775,166.448 217.135 C 165.265 216.494,164.216 216.050,164.118 216.148 C 163.946 216.321,169.076 218.894,170.500 219.351 C 171.146 219.558,171.200 220.499,171.200 231.587 L 171.200 243.600 138.000 243.600 L 104.800 243.600 104.800 198.400 L 104.800 153.200 121.400 153.200 L 138.000 153.200 138.000 181.976 C 138.000 197.803,138.135 210.836,138.300 210.938 C 138.465 211.040,138.510 198.046,138.400 182.062 L 138.200 153.000 121.489 152.896 C 108.334 152.813,104.737 152.899,104.586 153.296 M187.894 188.903 L 187.188 190.200 187.994 189.256 C 188.680 188.452,189.046 187.594,188.700 187.603 C 188.645 187.604,188.282 188.189,187.894 188.903 M212.000 189.034 C 210.690 189.570,210.677 189.592,211.800 189.375 C 212.460 189.248,213.171 188.976,213.380 188.772 C 213.859 188.303,213.721 188.329,212.000 189.034 M176.372 189.472 C 176.826 190.401,179.118 192.216,179.436 191.898 C 179.540 191.794,179.124 191.391,178.512 191.004 C 177.901 190.617,177.073 189.917,176.673 189.450 L 175.946 188.600 176.372 189.472 M185.600 191.200 C 185.050 191.630,184.752 191.986,184.937 191.991 C 185.122 191.996,185.731 191.640,186.291 191.200 C 186.850 190.760,187.149 190.404,186.954 190.409 C 186.759 190.414,186.150 190.770,185.600 191.200 M151.246 191.600 C 151.227 192.150,151.387 192.870,151.600 193.200 C 152.094 193.964,152.094 193.142,151.600 191.600 L 151.280 190.600 151.246 191.600 M221.300 191.887 C 221.905 191.978,222.895 191.978,223.500 191.887 C 224.105 191.795,223.610 191.720,222.400 191.720 C 221.190 191.720,220.695 191.795,221.300 191.887 M251.700 191.887 C 252.305 191.978,253.295 191.978,253.900 191.887 C 254.505 191.795,254.010 191.720,252.800 191.720 C 251.590 191.720,251.095 191.795,251.700 191.887 M181.107 192.290 C 181.826 192.379,182.906 192.377,183.507 192.286 C 184.108 192.195,183.520 192.122,182.200 192.124 C 180.880 192.126,180.388 192.201,181.107 192.290 M215.400 192.419 C 214.842 192.671,215.085 192.707,216.200 192.538 C 217.080 192.404,217.875 192.228,217.967 192.147 C 218.310 191.844,216.168 192.071,215.400 192.419 M226.033 192.143 C 226.125 192.221,226.830 192.401,227.600 192.542 C 228.585 192.723,228.822 192.682,228.400 192.406 C 227.858 192.050,225.637 191.803,226.033 192.143 M246.800 192.400 C 246.036 192.894,246.858 192.894,248.400 192.400 L 249.400 192.080 248.400 192.046 C 247.850 192.027,247.130 192.187,246.800 192.400 M256.833 192.147 C 256.925 192.228,257.720 192.404,258.600 192.538 C 259.715 192.707,259.958 192.671,259.400 192.419 C 258.632 192.071,256.490 191.844,256.833 192.147 M201.951 194.434 L 200.200 196.068 202.100 194.586 C 203.836 193.232,204.259 192.800,203.851 192.800 C 203.770 192.800,202.915 193.535,201.951 194.434 M211.578 193.380 C 209.748 194.054,206.800 195.557,206.800 195.816 C 206.800 195.926,207.563 195.627,208.495 195.151 C 209.428 194.676,211.093 193.965,212.195 193.572 C 213.298 193.180,213.930 192.858,213.600 192.857 C 213.270 192.857,212.360 193.092,211.578 193.380 M260.833 192.944 C 260.925 193.023,261.540 193.208,262.200 193.356 C 263.076 193.552,263.238 193.515,262.800 193.218 C 262.260 192.853,260.432 192.598,260.833 192.944 M263.633 193.743 C 264.146 194.184,268.004 195.930,267.825 195.640 C 267.606 195.285,264.229 193.600,263.738 193.600 C 263.589 193.600,263.542 193.664,263.633 193.743 M234.700 195.574 C 235.591 196.219,236.439 196.939,236.584 197.174 C 237.058 197.941,237.992 197.625,240.048 196.000 C 241.161 195.120,241.908 194.400,241.708 194.400 C 241.508 194.400,240.608 195.030,239.708 195.800 C 238.809 196.570,237.860 197.200,237.600 197.200 C 237.340 197.200,236.391 196.570,235.492 195.800 C 234.592 195.030,233.681 194.400,233.468 194.400 C 233.255 194.400,233.809 194.928,234.700 195.574 M198.091 198.120 C 196.339 200.286,194.288 203.878,193.818 205.600 C 193.668 206.150,194.265 205.155,195.144 203.390 C 196.022 201.624,197.497 199.321,198.420 198.272 C 199.343 197.223,200.025 196.292,199.936 196.203 C 199.846 196.113,199.016 196.976,198.091 198.120 M269.400 196.877 C 270.060 197.384,271.320 198.405,272.200 199.146 C 273.254 200.033,273.132 199.857,271.843 198.630 C 270.767 197.606,269.507 196.585,269.043 196.362 C 268.580 196.138,268.740 196.371,269.400 196.877 M152.800 197.153 C 152.800 200.605,160.016 209.357,165.500 212.556 C 166.912 213.379,165.728 212.309,164.001 211.201 C 160.682 209.071,156.643 204.396,154.605 200.324 C 153.612 198.341,152.800 196.914,152.800 197.153 M202.618 199.069 C 201.370 200.317,200.087 201.892,199.766 202.569 L 199.182 203.800 199.884 202.800 C 200.270 202.250,201.652 200.675,202.956 199.300 C 205.916 196.178,205.674 196.013,202.618 199.069 M274.532 202.100 C 275.749 203.725,276.719 205.625,277.649 208.200 C 278.046 209.300,278.378 209.900,278.386 209.533 C 278.417 208.075,274.676 200.800,273.895 200.800 C 273.710 200.800,273.997 201.385,274.532 202.100 M307.500 209.493 C 308.435 209.577,309.965 209.577,310.900 209.493 C 311.835 209.409,311.070 209.340,309.200 209.340 C 307.330 209.340,306.565 209.409,307.500 209.493 M192.200 211.200 C 192.046 212.110,192.004 212.938,192.107 213.040 C 192.210 213.143,192.413 212.477,192.560 211.560 C 192.707 210.643,192.748 209.815,192.653 209.720 C 192.558 209.624,192.354 210.290,192.200 211.200 M301.800 210.010 C 301.266 210.247,301.598 210.286,302.800 210.127 C 303.790 209.996,304.675 209.824,304.767 209.744 C 305.114 209.443,302.564 209.672,301.800 210.010 M314.033 209.749 C 314.125 209.831,315.100 210.001,316.200 210.128 C 317.549 210.284,317.874 210.249,317.200 210.020 C 316.201 209.680,313.718 209.468,314.033 209.749 M196.249 211.015 C 196.112 211.373,196.018 212.146,196.040 212.733 C 196.073 213.591,196.152 213.495,196.446 212.240 C 196.822 210.639,196.695 209.853,196.249 211.015 M278.673 212.000 C 278.804 212.990,278.976 213.875,279.056 213.967 C 279.357 214.314,279.128 211.764,278.790 211.000 C 278.553 210.466,278.514 210.798,278.673 212.000 M298.800 210.818 C 298.362 211.115,298.524 211.152,299.400 210.956 C 300.871 210.627,301.190 210.398,300.167 210.406 C 299.745 210.409,299.130 210.595,298.800 210.818 M159.056 212.925 C 161.519 214.738,163.940 216.330,163.599 215.912 C 163.160 215.372,157.377 211.215,157.056 211.208 C 156.867 211.204,157.767 211.976,159.056 212.925 M295.812 212.024 C 294.938 212.460,294.038 213.012,293.812 213.251 C 293.459 213.623,297.502 211.775,297.967 211.352 C 298.410 210.948,297.232 211.316,295.812 212.024 M325.020 213.166 C 326.130 213.803,327.278 214.611,327.569 214.962 C 327.860 215.313,328.269 215.600,328.478 215.600 C 328.686 215.600,328.599 215.341,328.283 215.025 C 327.454 214.197,323.919 211.999,323.422 212.004 C 323.190 212.006,323.909 212.529,325.020 213.166 M168.000 213.795 C 168.000 214.049,170.765 215.203,171.349 215.191 C 171.597 215.186,171.015 214.826,170.056 214.391 C 168.196 213.547,168.000 213.490,168.000 213.795 M291.687 214.700 C 290.730 215.635,290.714 215.681,291.581 215.006 C 293.288 213.676,293.369 213.600,293.086 213.600 C 292.936 213.600,292.306 214.095,291.687 214.700 M191.600 214.906 C 191.600 215.257,191.195 215.622,190.700 215.718 L 189.800 215.891 190.713 215.946 C 191.592 215.998,192.362 215.029,191.849 214.516 C 191.712 214.379,191.600 214.554,191.600 214.906 M221.700 215.076 C 222.085 215.176,222.715 215.176,223.100 215.076 C 223.485 214.975,223.170 214.893,222.400 214.893 C 221.630 214.893,221.315 214.975,221.700 215.076 M249.969 215.969 C 249.326 216.612,248.807 217.377,248.816 217.669 C 248.825 217.961,249.098 217.710,249.424 217.110 C 250.779 214.613,254.314 214.500,255.691 216.909 C 256.066 217.565,256.253 221.551,256.400 232.000 L 256.600 246.200 268.000 246.200 L 279.400 246.200 279.407 230.800 L 279.415 215.400 279.303 230.700 L 279.190 246.000 267.995 246.000 L 256.800 246.000 256.798 232.700 C 256.796 224.819,256.628 218.796,256.384 217.918 C 255.520 214.808,252.153 213.785,249.969 215.969 M172.400 215.582 C 172.730 215.805,173.345 215.991,173.767 215.994 C 174.790 216.002,174.471 215.773,173.000 215.444 C 172.124 215.248,171.962 215.285,172.400 215.582 M195.793 230.600 L 195.800 246.200 207.200 246.200 L 218.600 246.200 218.800 231.933 L 219.000 217.665 219.968 216.333 C 220.842 215.130,220.852 215.074,220.070 215.760 C 218.584 217.065,218.405 218.885,218.402 232.700 L 218.400 246.000 207.205 246.000 L 196.009 246.000 195.897 230.500 L 195.786 215.000 195.793 230.600 M175.800 216.397 C 176.564 216.728,179.514 216.955,179.167 216.656 C 179.075 216.577,178.100 216.409,177.000 216.282 C 175.713 216.133,175.285 216.174,175.800 216.397 M186.600 216.400 L 185.000 216.686 186.400 216.703 C 187.170 216.713,188.250 216.576,188.800 216.400 C 190.085 215.988,188.899 215.988,186.600 216.400 M288.140 217.700 C 286.306 219.617,283.824 223.158,284.113 223.446 C 284.217 223.551,284.807 222.776,285.423 221.724 C 286.040 220.672,287.346 218.954,288.327 217.906 C 289.307 216.858,290.032 216.000,289.938 216.000 C 289.844 216.000,289.035 216.765,288.140 217.700 M330.828 218.184 C 331.345 219.125,332.799 220.882,332.789 220.554 C 332.783 220.359,332.288 219.653,331.689 218.984 C 331.090 218.316,330.703 217.956,330.828 218.184 M248.400 232.594 L 248.400 245.987 237.300 246.100 L 226.200 246.213 237.500 246.307 L 248.800 246.400 248.800 232.800 C 248.800 225.320,248.710 219.200,248.600 219.200 C 248.490 219.200,248.400 225.227,248.400 232.594 M333.862 224.600 C 333.996 225.480,334.172 226.275,334.253 226.367 C 334.556 226.710,334.329 224.568,333.981 223.800 C 333.729 223.242,333.693 223.485,333.862 224.600 M283.023 225.406 C 282.115 227.580,282.276 228.111,283.216 226.040 C 283.655 225.073,283.932 224.198,283.831 224.097 C 283.730 223.996,283.366 224.585,283.023 225.406 M334.509 229.200 C 334.509 230.190,334.587 230.595,334.682 230.100 C 334.778 229.605,334.778 228.795,334.682 228.300 C 334.587 227.805,334.509 228.210,334.509 229.200 M281.800 229.200 C 281.648 229.891,281.607 230.541,281.709 230.642 C 281.811 230.744,282.009 230.253,282.150 229.550 C 282.291 228.847,282.331 228.198,282.241 228.108 C 282.150 228.017,281.952 228.509,281.800 229.200 M304.753 232.753 C 303.899 233.607,303.211 234.642,303.225 235.053 C 303.245 235.636,303.338 235.582,303.646 234.808 C 304.205 233.409,305.205 232.377,306.600 231.761 C 307.429 231.395,307.569 231.226,307.053 231.216 C 306.642 231.207,305.607 231.899,304.753 232.753 M308.833 231.344 C 308.925 231.423,309.540 231.608,310.200 231.756 C 311.076 231.952,311.238 231.915,310.800 231.618 C 310.260 231.253,308.432 230.998,308.833 231.344 M281.057 233.100 C 280.747 234.975,280.794 239.097,281.140 240.324 C 281.283 240.832,281.400 239.077,281.400 236.424 C 281.400 231.021,281.400 231.022,281.057 233.100 M312.434 233.047 C 312.965 233.733,313.480 234.223,313.579 234.135 C 313.677 234.047,313.243 233.486,312.613 232.888 L 311.469 231.800 312.434 233.047 M334.049 232.400 C 334.016 232.730,333.889 233.450,333.767 234.000 C 333.575 234.864,333.607 234.903,333.999 234.288 C 334.248 233.897,334.375 233.177,334.281 232.688 C 334.186 232.200,334.082 232.070,334.049 232.400 M313.693 236.000 C 313.693 236.770,313.775 237.085,313.876 236.700 C 313.976 236.315,313.976 235.685,313.876 235.300 C 313.775 234.915,313.693 235.230,313.693 236.000 M333.001 235.996 C 332.852 236.467,332.187 237.471,331.523 238.226 L 330.317 239.600 321.297 239.600 C 312.583 239.600,312.299 239.575,312.938 238.869 C 313.302 238.466,313.596 237.971,313.591 237.769 C 313.581 237.344,312.022 239.247,312.009 239.700 C 312.004 239.865,316.105 240.000,321.122 240.000 L 330.243 240.000 331.474 238.700 C 332.808 237.290,333.782 235.648,333.469 235.336 C 333.361 235.228,333.151 235.525,333.001 235.996 M303.234 237.494 C 303.215 237.985,303.695 238.894,304.300 239.513 C 304.905 240.132,305.076 240.248,304.679 239.772 C 304.283 239.295,303.804 238.386,303.614 237.752 C 303.322 236.779,303.263 236.739,303.234 237.494 M306.537 241.294 C 306.792 241.456,313.255 241.591,320.900 241.594 L 334.800 241.600 334.800 252.625 L 334.800 263.650 318.994 263.525 C 310.301 263.456,303.720 263.537,304.369 263.705 C 305.019 263.873,312.176 263.963,320.275 263.905 L 335.000 263.800 335.106 252.690 C 335.189 244.014,335.102 241.539,334.706 241.396 C 333.844 241.083,306.047 240.982,306.537 241.294 M281.668 242.600 C 281.662 243.040,281.811 243.760,282.000 244.200 C 282.438 245.219,282.438 244.168,282.000 242.800 C 281.743 241.996,281.677 241.957,281.668 242.600 M283.200 247.353 C 283.200 247.782,284.390 250.000,284.621 250.000 C 284.731 250.000,284.523 249.415,284.159 248.700 C 283.417 247.240,283.200 246.936,283.200 247.353 M285.046 250.900 C 286.989 254.208,292.088 259.008,295.516 260.757 C 297.960 262.004,298.128 261.766,295.735 260.447 C 292.411 258.614,289.091 255.788,286.984 252.999 C 285.168 250.595,284.341 249.699,285.046 250.900 M300.400 262.800 C 300.730 263.013,301.360 263.178,301.800 263.166 L 302.600 263.144 301.800 262.800 C 300.604 262.286,299.605 262.286,300.400 262.800 " stroke="none" fill="#767474" fill-rule="evenodd"></path><path id="path4" d="M188.984 167.000 C 188.984 176.900,189.036 180.893,189.100 175.873 C 189.163 170.853,189.163 162.753,189.100 157.873 C 189.036 152.993,188.984 157.100,188.984 167.000 M181.305 217.087 C 181.914 217.179,182.814 217.177,183.305 217.082 C 183.797 216.987,183.300 216.911,182.200 216.914 C 181.100 216.917,180.697 216.995,181.305 217.087 M218.800 232.480 C 218.690 240.115,218.737 246.223,218.905 246.055 C 219.073 245.887,219.163 239.641,219.105 232.175 L 218.999 218.600 218.800 232.480 M256.086 232.276 C 256.039 239.798,256.135 246.036,256.300 246.139 C 256.465 246.241,256.554 242.247,256.498 237.262 C 256.307 220.219,256.173 218.599,256.086 232.276 M171.778 231.600 C 171.778 238.310,171.832 241.055,171.899 237.700 C 171.966 234.345,171.966 228.855,171.899 225.500 C 171.832 222.145,171.778 224.890,171.778 231.600 " stroke="none" fill="#948c8c" fill-rule="evenodd"></path></g></svg>